<mxfile modified="2023-06-30T17:45:47.228Z" host="app.diagrams.net" agent="Mozilla/5.0 (Windows NT 10.0; Win64; x64; rv:109.0) Gecko/20100101 Firefox/114.0" etag="4yffwzX0NxaL0eDjnr49" version="21.5.1" type="device">
  <diagram id="Ht1M8jgEwFfnCIfOTk4-" name="Page-1">
    <mxGraphModel dx="1509" dy="815" grid="1" gridSize="10" guides="1" tooltips="1" connect="1" arrows="1" fold="1" page="1" pageScale="1" pageWidth="1169" pageHeight="827" math="0" shadow="0">
      <root>
        <mxCell id="0" />
        <mxCell id="1" parent="0" />
        <mxCell id="8aMaozp1hs_Vo7wc_97u-9" value="" style="fillColor=none;strokeColor=#5A6C86;dashed=1;verticalAlign=top;fontStyle=0;fontColor=#5A6C86;whiteSpace=wrap;html=1;" vertex="1" parent="1">
          <mxGeometry x="910" y="72.5" width="500" height="347" as="geometry" />
        </mxCell>
        <mxCell id="8aMaozp1hs_Vo7wc_97u-4" value="Table" style="outlineConnect=0;dashed=0;verticalLabelPosition=bottom;verticalAlign=top;align=center;html=1;shape=mxgraph.aws3.dynamo_db;fillColor=#2E73B8;gradientColor=none;" vertex="1" parent="1">
          <mxGeometry x="140" y="160" width="72" height="81" as="geometry" />
        </mxCell>
        <mxCell id="8aMaozp1hs_Vo7wc_97u-17" style="edgeStyle=orthogonalEdgeStyle;rounded=0;orthogonalLoop=1;jettySize=auto;html=1;" edge="1" parent="1" source="8aMaozp1hs_Vo7wc_97u-5" target="8aMaozp1hs_Vo7wc_97u-6">
          <mxGeometry relative="1" as="geometry" />
        </mxCell>
        <mxCell id="8aMaozp1hs_Vo7wc_97u-18" value="new image(row) stream" style="edgeLabel;html=1;align=center;verticalAlign=middle;resizable=0;points=[];" vertex="1" connectable="0" parent="8aMaozp1hs_Vo7wc_97u-17">
          <mxGeometry x="-0.1231" relative="1" as="geometry">
            <mxPoint as="offset" />
          </mxGeometry>
        </mxCell>
        <mxCell id="8aMaozp1hs_Vo7wc_97u-5" value="dynamo streams" style="outlineConnect=0;dashed=0;verticalLabelPosition=bottom;verticalAlign=top;align=center;html=1;shape=mxgraph.aws3.kinesis_streams;fillColor=#F58534;gradientColor=none;" vertex="1" parent="1">
          <mxGeometry x="200" y="202.5" width="60" height="63" as="geometry" />
        </mxCell>
        <mxCell id="8aMaozp1hs_Vo7wc_97u-24" style="edgeStyle=orthogonalEdgeStyle;rounded=0;orthogonalLoop=1;jettySize=auto;html=1;entryX=0;entryY=0.5;entryDx=0;entryDy=0;entryPerimeter=0;" edge="1" parent="1" source="8aMaozp1hs_Vo7wc_97u-6" target="8aMaozp1hs_Vo7wc_97u-23">
          <mxGeometry relative="1" as="geometry" />
        </mxCell>
        <mxCell id="8aMaozp1hs_Vo7wc_97u-6" value="" style="sketch=0;points=[[0,0,0],[0.25,0,0],[0.5,0,0],[0.75,0,0],[1,0,0],[0,1,0],[0.25,1,0],[0.5,1,0],[0.75,1,0],[1,1,0],[0,0.25,0],[0,0.5,0],[0,0.75,0],[1,0.25,0],[1,0.5,0],[1,0.75,0]];outlineConnect=0;fontColor=#232F3E;gradientColor=#F78E04;gradientDirection=north;fillColor=#D05C17;strokeColor=#ffffff;dashed=0;verticalLabelPosition=bottom;verticalAlign=top;align=center;html=1;fontSize=12;fontStyle=0;aspect=fixed;shape=mxgraph.aws4.resourceIcon;resIcon=mxgraph.aws4.lambda;" vertex="1" parent="1">
          <mxGeometry x="410" y="195" width="78" height="78" as="geometry" />
        </mxCell>
        <mxCell id="8aMaozp1hs_Vo7wc_97u-21" value="DynamoFailureUpdateLambda" style="sketch=0;points=[[0,0,0],[0.25,0,0],[0.5,0,0],[0.75,0,0],[1,0,0],[0,1,0],[0.25,1,0],[0.5,1,0],[0.75,1,0],[1,1,0],[0,0.25,0],[0,0.5,0],[0,0.75,0],[1,0.25,0],[1,0.5,0],[1,0.75,0]];outlineConnect=0;fontColor=#232F3E;gradientColor=#F78E04;gradientDirection=north;fillColor=#D05C17;strokeColor=#ffffff;dashed=0;verticalLabelPosition=bottom;verticalAlign=top;align=center;html=1;fontSize=12;fontStyle=0;aspect=fixed;shape=mxgraph.aws4.resourceIcon;resIcon=mxgraph.aws4.lambda;" vertex="1" parent="1">
          <mxGeometry x="770" y="273" width="78" height="78" as="geometry" />
        </mxCell>
        <mxCell id="8aMaozp1hs_Vo7wc_97u-37" style="edgeStyle=orthogonalEdgeStyle;rounded=0;orthogonalLoop=1;jettySize=auto;html=1;" edge="1" parent="1" source="8aMaozp1hs_Vo7wc_97u-22" target="8aMaozp1hs_Vo7wc_97u-3">
          <mxGeometry relative="1" as="geometry" />
        </mxCell>
        <mxCell id="8aMaozp1hs_Vo7wc_97u-22" value="SNSSendLambda" style="sketch=0;points=[[0,0,0],[0.25,0,0],[0.5,0,0],[0.75,0,0],[1,0,0],[0,1,0],[0.25,1,0],[0.5,1,0],[0.75,1,0],[1,1,0],[0,0.25,0],[0,0.5,0],[0,0.75,0],[1,0.25,0],[1,0.5,0],[1,0.75,0]];outlineConnect=0;fontColor=#232F3E;gradientColor=#F78E04;gradientDirection=north;fillColor=#D05C17;strokeColor=#ffffff;dashed=0;verticalLabelPosition=bottom;verticalAlign=top;align=center;html=1;fontSize=12;fontStyle=0;aspect=fixed;shape=mxgraph.aws4.resourceIcon;resIcon=mxgraph.aws4.lambda;" vertex="1" parent="1">
          <mxGeometry x="750" y="140" width="78" height="78" as="geometry" />
        </mxCell>
        <mxCell id="8aMaozp1hs_Vo7wc_97u-28" style="edgeStyle=orthogonalEdgeStyle;rounded=0;orthogonalLoop=1;jettySize=auto;html=1;entryX=0;entryY=0.5;entryDx=0;entryDy=0;entryPerimeter=0;" edge="1" parent="1" source="8aMaozp1hs_Vo7wc_97u-23" target="8aMaozp1hs_Vo7wc_97u-26">
          <mxGeometry relative="1" as="geometry">
            <Array as="points">
              <mxPoint x="710" y="179" />
              <mxPoint x="710" y="242" />
              <mxPoint x="580" y="242" />
              <mxPoint x="580" y="304" />
              <mxPoint x="610" y="304" />
            </Array>
          </mxGeometry>
        </mxCell>
        <mxCell id="8aMaozp1hs_Vo7wc_97u-30" value="failure" style="edgeLabel;html=1;align=center;verticalAlign=middle;resizable=0;points=[];" vertex="1" connectable="0" parent="8aMaozp1hs_Vo7wc_97u-28">
          <mxGeometry x="0.5362" relative="1" as="geometry">
            <mxPoint as="offset" />
          </mxGeometry>
        </mxCell>
        <mxCell id="8aMaozp1hs_Vo7wc_97u-34" style="edgeStyle=orthogonalEdgeStyle;rounded=0;orthogonalLoop=1;jettySize=auto;html=1;entryX=0;entryY=0.5;entryDx=0;entryDy=0;entryPerimeter=0;" edge="1" parent="1" source="8aMaozp1hs_Vo7wc_97u-23" target="8aMaozp1hs_Vo7wc_97u-22">
          <mxGeometry relative="1" as="geometry" />
        </mxCell>
        <mxCell id="8aMaozp1hs_Vo7wc_97u-38" value="3 retries" style="edgeLabel;html=1;align=center;verticalAlign=middle;resizable=0;points=[];" vertex="1" connectable="0" parent="8aMaozp1hs_Vo7wc_97u-34">
          <mxGeometry x="-0.008" y="-1" relative="1" as="geometry">
            <mxPoint as="offset" />
          </mxGeometry>
        </mxCell>
        <mxCell id="8aMaozp1hs_Vo7wc_97u-23" value="MessageQueue" style="sketch=0;points=[[0,0,0],[0.25,0,0],[0.5,0,0],[0.75,0,0],[1,0,0],[0,1,0],[0.25,1,0],[0.5,1,0],[0.75,1,0],[1,1,0],[0,0.25,0],[0,0.5,0],[0,0.75,0],[1,0.25,0],[1,0.5,0],[1,0.75,0]];outlineConnect=0;fontColor=#232F3E;gradientColor=#FF4F8B;gradientDirection=north;fillColor=#BC1356;strokeColor=#ffffff;dashed=0;verticalLabelPosition=bottom;verticalAlign=top;align=center;html=1;fontSize=12;fontStyle=0;aspect=fixed;shape=mxgraph.aws4.resourceIcon;resIcon=mxgraph.aws4.sqs;" vertex="1" parent="1">
          <mxGeometry x="580" y="140" width="78" height="78" as="geometry" />
        </mxCell>
        <mxCell id="8aMaozp1hs_Vo7wc_97u-29" style="edgeStyle=orthogonalEdgeStyle;rounded=0;orthogonalLoop=1;jettySize=auto;html=1;entryX=0;entryY=0.5;entryDx=0;entryDy=0;entryPerimeter=0;" edge="1" parent="1" source="8aMaozp1hs_Vo7wc_97u-26" target="8aMaozp1hs_Vo7wc_97u-21">
          <mxGeometry relative="1" as="geometry" />
        </mxCell>
        <mxCell id="8aMaozp1hs_Vo7wc_97u-26" value="DLQ" style="sketch=0;points=[[0,0,0],[0.25,0,0],[0.5,0,0],[0.75,0,0],[1,0,0],[0,1,0],[0.25,1,0],[0.5,1,0],[0.75,1,0],[1,1,0],[0,0.25,0],[0,0.5,0],[0,0.75,0],[1,0.25,0],[1,0.5,0],[1,0.75,0]];outlineConnect=0;fontColor=#232F3E;gradientColor=#FF4F8B;gradientDirection=north;fillColor=#BC1356;strokeColor=#ffffff;dashed=0;verticalLabelPosition=bottom;verticalAlign=top;align=center;html=1;fontSize=12;fontStyle=0;aspect=fixed;shape=mxgraph.aws4.resourceIcon;resIcon=mxgraph.aws4.sqs;" vertex="1" parent="1">
          <mxGeometry x="610" y="273" width="78" height="78" as="geometry" />
        </mxCell>
        <mxCell id="8aMaozp1hs_Vo7wc_97u-2" value="" style="sketch=0;points=[[0,0,0],[0.25,0,0],[0.5,0,0],[0.75,0,0],[1,0,0],[0,1,0],[0.25,1,0],[0.5,1,0],[0.75,1,0],[1,1,0],[0,0.25,0],[0,0.5,0],[0,0.75,0],[1,0.25,0],[1,0.5,0],[1,0.75,0]];outlineConnect=0;fontColor=#232F3E;gradientColor=#FF4F8B;gradientDirection=north;fillColor=#BC1356;strokeColor=#ffffff;dashed=0;verticalLabelPosition=bottom;verticalAlign=top;align=center;html=1;fontSize=12;fontStyle=0;aspect=fixed;shape=mxgraph.aws4.resourceIcon;resIcon=mxgraph.aws4.sns;" vertex="1" parent="1">
          <mxGeometry x="1093" y="35.5" width="78" height="78" as="geometry" />
        </mxCell>
        <mxCell id="8aMaozp1hs_Vo7wc_97u-7" value="sms" style="html=1;verticalLabelPosition=bottom;align=center;labelBackgroundColor=#ffffff;verticalAlign=top;strokeWidth=2;strokeColor=#0080F0;shadow=0;dashed=0;shape=mxgraph.ios7.icons.mail;" vertex="1" parent="1">
          <mxGeometry x="1224" y="145.5" width="80" height="50" as="geometry" />
        </mxCell>
        <mxCell id="8aMaozp1hs_Vo7wc_97u-11" style="edgeStyle=orthogonalEdgeStyle;rounded=0;orthogonalLoop=1;jettySize=auto;html=1;" edge="1" parent="1" source="8aMaozp1hs_Vo7wc_97u-3" target="8aMaozp1hs_Vo7wc_97u-7">
          <mxGeometry relative="1" as="geometry">
            <Array as="points">
              <mxPoint x="1011" y="175.5" />
            </Array>
          </mxGeometry>
        </mxCell>
        <mxCell id="8aMaozp1hs_Vo7wc_97u-14" value="protocol" style="edgeLabel;html=1;align=center;verticalAlign=middle;resizable=0;points=[];" vertex="1" connectable="0" parent="8aMaozp1hs_Vo7wc_97u-11">
          <mxGeometry x="0.1054" y="-1" relative="1" as="geometry">
            <mxPoint as="offset" />
          </mxGeometry>
        </mxCell>
        <mxCell id="8aMaozp1hs_Vo7wc_97u-8" value="email" style="outlineConnect=0;dashed=0;verticalLabelPosition=bottom;verticalAlign=top;align=center;html=1;shape=mxgraph.aws3.email;fillColor=#D9A741;gradientColor=none;" vertex="1" parent="1">
          <mxGeometry x="1223" y="315.5" width="81" height="61.5" as="geometry" />
        </mxCell>
        <mxCell id="8aMaozp1hs_Vo7wc_97u-12" style="edgeStyle=orthogonalEdgeStyle;rounded=0;orthogonalLoop=1;jettySize=auto;html=1;" edge="1" parent="1" source="8aMaozp1hs_Vo7wc_97u-3" target="8aMaozp1hs_Vo7wc_97u-8">
          <mxGeometry relative="1" as="geometry">
            <Array as="points">
              <mxPoint x="1011" y="355.5" />
            </Array>
          </mxGeometry>
        </mxCell>
        <mxCell id="8aMaozp1hs_Vo7wc_97u-13" value="protocol" style="edgeLabel;html=1;align=center;verticalAlign=middle;resizable=0;points=[];" vertex="1" connectable="0" parent="8aMaozp1hs_Vo7wc_97u-12">
          <mxGeometry x="0.3349" y="1" relative="1" as="geometry">
            <mxPoint as="offset" />
          </mxGeometry>
        </mxCell>
        <mxCell id="8aMaozp1hs_Vo7wc_97u-15" value="aws sns account must be moved to production from sandbox" style="shape=callout;whiteSpace=wrap;html=1;perimeter=calloutPerimeter;" vertex="1" parent="1">
          <mxGeometry x="1180" y="35.5" width="220" height="100" as="geometry" />
        </mxCell>
        <mxCell id="8aMaozp1hs_Vo7wc_97u-19" value="&lt;div&gt;3 retries&lt;/div&gt;&lt;div&gt;expponential backoff&lt;/div&gt;&lt;div&gt;min delay 30s&lt;br&gt;&lt;/div&gt;" style="shape=callout;whiteSpace=wrap;html=1;perimeter=calloutPerimeter;" vertex="1" parent="1">
          <mxGeometry x="936.25" y="113.5" width="150" height="80" as="geometry" />
        </mxCell>
        <mxCell id="8aMaozp1hs_Vo7wc_97u-3" value="topic" style="outlineConnect=0;dashed=0;verticalLabelPosition=bottom;verticalAlign=top;align=center;html=1;shape=mxgraph.aws3.sns;fillColor=#D9A741;gradientColor=none;" vertex="1" parent="1">
          <mxGeometry x="973" y="202" width="76.5" height="76.5" as="geometry" />
        </mxCell>
      </root>
    </mxGraphModel>
  </diagram>
</mxfile>
